<svg xmlns="http://www.w3.org/2000/svg" xml:space="preserve" viewBox="0 0 256 256"><path fill="#32619B" fill-rule="evenodd" d="M89 50.67c21.74 0 40.52 12.67 49.36 31.02 15.85.7 31.13 8.52 37.01 25.73 28.12-11.69 48 15.5 43.02 34.4 25.43 15.93 9.64 45.11-23.34 55.32-25.36 7.85-62.02 12.52-98.42 2.36-66.2 11.04-96.54-47.59-54.86-66.33v-.01c-4.79-8.13-7.53-17.61-7.53-27.73.01-30.24 24.52-54.76 54.76-54.76zm-2 57.91c0 6.49 1.32 11.83 3.57 15.56 2.29 3.79 5.54 5.92 9.33 5.92 4.65 0 7.89-2.23 10.03-5.72 2.61-4.24 3.63-10.33 3.63-16.53 0-5.3-.33-11.43-2.2-16.22-1.86-4.77-5.25-8.22-11.36-8.22-4.39 0-7.37 2.7-9.36 6.53-2.83 5.45-3.64 13.17-3.64 18.68zm55.93 6.41c-2.59 14.75-11.09 27.46-22.97 35.62.24-.37.47-.75.68-1.14.96-1.75 1.56-3.66 1.92-5.71.36-2.05.48-4.26.48-6.61L123 90.49c0-2.91.68-5.04 2.12-6.42 1.45-1.39 3.66-2.06 6.73-2.06h.15v-.14l.01-2v-.14h-.14l-8.95.02h-9.35v7.46c-1.61-2.89-3.66-4.99-6.05-6.4-2.71-1.6-5.85-2.32-9.27-2.32-1.37 0-2.67.11-3.89.32-6.67 1.14-11.18 5.22-14 10.51-2.82 5.27-3.99 11.74-3.99 17.67 0 2.49.21 4.88.58 7.05 1.13 6.61 3.59 11.94 7.27 15.59 3.56 3.53 8.27 5.48 14.03 5.48 3.79 0 6.64-.55 9.05-1.95 2.31-1.33 4.21-3.42 6.15-6.52-.01.84-.01 1.95-.01 3.2-.01 5.5-.01 13.97-1.01 16.91-.91 2.67-2.53 4.53-4.5 5.76-2.39 1.5-5.29 2.08-8.02 2.08-2.62 0-5.51-.91-7.69-2.79-1.8-1.56-3.11-3.8-3.34-6.74l-.01-.13H77.84l.01.15c.2 5.03 2.61 8.36 5.87 10.56 4.15 2.79 9.66 3.72 13.71 3.93-2.75.42-5.56.65-8.42.65-7.44 0-14.54-1.49-21.01-4.18-34.2.18-17.11 41.33 33.55 32.46 31.2 13.12 72.79 13.24 97.07-.6 18.69-10.65 26.59-30.4 7.81-40.23 3.26-18.87-17.21-31.6-33.93-16.37-2.72-15.52-17.44-20.82-29.57-16.31z" clip-rule="evenodd"/></svg>